<svg width="52" height="52" viewBox="0 0 52 52" fill="none" xmlns="http://www.w3.org/2000/svg">
<g clip-path="url(#clip0_297_17)">
<path d="M26 2.00012C39.2548 2.00012 49.9999 12.7452 49.9999 25.9997C49.9999 39.2548 39.2548 50.0003 26 50.0003C12.7452 50.0003 2.00001 39.2548 2.00001 25.9997C2.00001 12.7452 12.7451 2.00012 26 2.00012Z" fill="black" fill-opacity="0.01" stroke="white" stroke-width="2"/>
<g clip-path="url(#clip1_297_17)">
<path d="M37.9763 21.0561C37.9201 19.7809 37.7139 18.9042 37.4185 18.1445C37.1138 17.3381 36.6449 16.6162 36.0307 16.016C35.4305 15.4065 34.7038 14.9329 33.9068 14.6329C33.1427 14.3375 32.2706 14.1313 30.9954 14.0751C29.7106 14.0141 29.3028 14 26.0443 14C22.7859 14 22.378 14.0141 21.0981 14.0703C19.8228 14.1266 18.9461 14.333 18.1867 14.6282C17.3801 14.9329 16.6582 15.4018 16.058 16.016C15.4485 16.6162 14.9751 17.3429 14.6749 18.1399C14.3795 18.9042 14.1733 19.7761 14.1171 21.0513C14.0561 22.336 14.042 22.7439 14.042 26.0023C14.042 29.2608 14.0561 29.6686 14.1123 30.9486C14.1685 32.2238 14.3749 33.1005 14.6703 33.8602C14.9751 34.6666 15.4485 35.3885 16.058 35.9887C16.6582 36.5982 17.3849 37.0718 18.1819 37.3718C18.9461 37.6672 19.8181 37.8734 21.0935 37.9296C22.3733 37.986 22.7813 37.9999 26.0398 37.9999C29.2982 37.9999 29.7061 37.986 30.986 37.9296C32.2612 37.8734 33.1379 37.6672 33.8974 37.3718C35.5104 36.7482 36.7856 35.4729 37.4092 33.8602C37.7044 33.096 37.9108 32.2238 37.967 30.9486C38.0232 29.6686 38.0373 29.2608 38.0373 26.0023C38.0373 22.7439 38.0326 22.336 37.9763 21.0561ZM35.8151 30.8549C35.7635 32.027 35.5666 32.6599 35.4025 33.0819C34.9992 34.1274 34.1694 34.9572 33.1238 35.3605C32.7019 35.5246 32.0644 35.7215 30.8968 35.7729C29.631 35.8293 29.2513 35.8433 26.0491 35.8433C22.8469 35.8433 22.4625 35.8293 21.2012 35.7729C20.0291 35.7215 19.3961 35.5246 18.9742 35.3605C18.4539 35.1682 17.9803 34.8634 17.5958 34.4649C17.1973 34.0758 16.8926 33.6069 16.7003 33.0866C16.5362 32.6647 16.3393 32.027 16.2879 30.8596C16.2314 29.5937 16.2175 29.2139 16.2175 26.0117C16.2175 22.8095 16.2314 22.425 16.2879 21.1639C16.3393 19.9918 16.5362 19.3589 16.7003 18.9369C16.8926 18.4165 17.1973 17.943 17.6006 17.5584C17.9896 17.1599 18.4584 16.8552 18.9789 16.6631C19.4009 16.499 20.0386 16.3021 21.2059 16.2504C22.4718 16.1942 22.8516 16.1801 26.0537 16.1801C29.2607 16.1801 29.6403 16.1942 30.9016 16.2504C32.0737 16.3021 32.7066 16.499 33.1286 16.6631C33.6489 16.8552 34.1225 17.1599 34.5069 17.5584C34.9054 17.9476 35.2102 18.4165 35.4025 18.9369C35.5666 19.3589 35.7635 19.9964 35.8151 21.1639C35.8713 22.4298 35.8854 22.8095 35.8854 26.0117C35.8854 29.2139 35.8713 29.589 35.8151 30.8549Z" fill="white"/>
<path d="M26.0442 19.8372C22.6405 19.8372 19.8789 22.5986 19.8789 26.0024C19.8789 29.4063 22.6405 32.1677 26.0442 32.1677C29.448 32.1677 32.2094 29.4063 32.2094 26.0024C32.2094 22.5986 29.448 19.8372 26.0442 19.8372ZM26.0442 30.0017C23.836 30.0017 22.0449 28.2107 22.0449 26.0024C22.0449 23.7941 23.836 22.0032 26.0442 22.0032C28.2525 22.0032 30.0434 23.7941 30.0434 26.0024C30.0434 28.2107 28.2525 30.0017 26.0442 30.0017Z" fill="white"/>
<path d="M33.8934 19.5931C33.8934 20.388 33.249 21.0324 32.454 21.0324C31.6591 21.0324 31.0146 20.388 31.0146 19.5931C31.0146 18.7981 31.6591 18.1538 32.454 18.1538C33.249 18.1538 33.8934 18.7981 33.8934 19.5931Z" fill="white"/>
</g>
</g>
<defs>
<clipPath id="clip0_297_17">
<rect width="52" height="52" fill="white"/>
</clipPath>
<clipPath id="clip1_297_17">
<rect width="24" height="24" fill="white" transform="translate(14 14)"/>
</clipPath>
</defs>
</svg>
